<svg width="18" height="14" viewBox="0 0 18 14" fill="none" xmlns="http://www.w3.org/2000/svg">
<path d="M7.12508 6.99998C7.12508 5.96445 7.96455 5.12498 9.00008 5.12498C10.0356 5.12498 10.8751 5.96445 10.8751 6.99998C10.8751 8.03551 10.0356 8.87498 9.00008 8.87498C7.96455 8.87498 7.12508 8.03551 7.12508 6.99998Z" fill="#BFBFBF"/>
<path fill-rule="evenodd" clip-rule="evenodd" d="M0.666748 6.99998C0.666748 8.36613 1.02088 8.82621 1.72916 9.74637C3.14339 11.5837 5.51518 13.6666 9.00008 13.6666C12.485 13.6666 14.8568 11.5837 16.271 9.74637C16.9793 8.82621 17.3334 8.36613 17.3334 6.99998C17.3334 5.63383 16.9793 5.17375 16.271 4.25359C14.8568 2.41628 12.485 0.333313 9.00008 0.333313C5.51518 0.333313 3.14338 2.41628 1.72916 4.25359C1.02088 5.17375 0.666748 5.63383 0.666748 6.99998ZM9.00008 3.87498C7.27419 3.87498 5.87508 5.27409 5.87508 6.99998C5.87508 8.72587 7.27419 10.125 9.00008 10.125C10.726 10.125 12.1251 8.72587 12.1251 6.99998C12.1251 5.27409 10.726 3.87498 9.00008 3.87498Z" fill="#BFBFBF"/>
</svg>
