<svg width="137" height="137" viewBox="30 30 500 500" fill="none" xmlns="http://www.w3.org/2000/svg">
<rect width="137" height="137" fill="#373737"/>
<g id="Community" clip-path="url(#clip0_0_1)">
<rect width="1200" height="722" transform="translate(-853 -90)" fill="white"/>
<g id="Frame 7954" filter="url(#filter0_d_0_1)">
<rect x="-10" y="-31" width="437" height="665" rx="10" fill="white"/>
</g>
<rect id="Rectangle 7045" x="14" y="15" width="389" height="107" rx="10" fill="url(#paint0_linear_0_1)" fill-opacity="0.64"/>
<g id="Frame 792303">
<rect x="133.5" y="82.5" width="117" height="27" rx="9.5" fill="#FC8026"/>
<rect x="133.5" y="82.5" width="117" height="27" rx="9.5" stroke="#FC8026"/>
</g>
<path id="Achieve Your Goals with Keep The Streak Alive" d="M135.288 45H133.176L137.4 33.304H139.496L143.72 45H141.56L140.616 42.296H136.248L135.288 45ZM138.184 36.792L136.84 40.568H140.024L138.68 36.792C138.637 36.632 138.589 36.472 138.536 36.312C138.483 36.152 138.451 36.0133 138.44 35.896C138.419 36.0027 138.381 36.1413 138.328 36.312C138.285 36.472 138.237 36.632 138.184 36.792ZM144.075 41.032C144.075 40.2213 144.241 39.5013 144.571 38.872C144.913 38.2427 145.377 37.752 145.963 37.4C146.561 37.0373 147.249 36.856 148.027 36.856C149.105 36.856 149.985 37.1387 150.667 37.704C151.361 38.2587 151.761 39.0107 151.867 39.96H149.915C149.798 39.512 149.579 39.176 149.259 38.952C148.95 38.7173 148.561 38.6 148.091 38.6C147.686 38.6 147.323 38.7013 147.003 38.904C146.694 39.096 146.454 39.3733 146.283 39.736C146.113 40.0987 146.027 40.5307 146.027 41.032C146.027 41.5333 146.107 41.9653 146.267 42.328C146.427 42.6907 146.657 42.9733 146.955 43.176C147.265 43.368 147.627 43.464 148.043 43.464C148.534 43.464 148.939 43.3467 149.259 43.112C149.59 42.8773 149.809 42.5413 149.915 42.104H151.883C151.798 42.7227 151.579 43.2667 151.227 43.736C150.886 44.1947 150.443 44.5573 149.899 44.824C149.355 45.08 148.737 45.208 148.043 45.208C147.243 45.208 146.545 45.0373 145.947 44.696C145.35 44.344 144.886 43.8587 144.555 43.24C144.235 42.6107 144.075 41.8747 144.075 41.032ZM155.288 45H153.336V33.096H155.304V38.12C155.549 37.736 155.891 37.432 156.328 37.208C156.776 36.9733 157.288 36.856 157.864 36.856C158.835 36.856 159.571 37.1493 160.072 37.736C160.584 38.3227 160.84 39.1227 160.84 40.136V45H158.888V40.6C158.888 40.152 158.819 39.784 158.68 39.496C158.541 39.208 158.349 38.9947 158.104 38.856C157.859 38.7067 157.571 38.632 157.24 38.632C156.835 38.632 156.483 38.7227 156.184 38.904C155.896 39.0747 155.672 39.3147 155.512 39.624C155.363 39.9333 155.288 40.2853 155.288 40.68V45ZM162.758 45V37.096H164.71V45H162.758ZM163.718 35.512C163.387 35.512 163.105 35.4 162.87 35.176C162.646 34.9413 162.534 34.6587 162.534 34.328C162.534 33.9973 162.646 33.72 162.87 33.496C163.105 33.272 163.387 33.16 163.718 33.16C164.049 33.16 164.326 33.272 164.55 33.496C164.785 33.72 164.902 33.9973 164.902 34.328C164.902 34.6587 164.785 34.9413 164.55 35.176C164.326 35.4 164.049 35.512 163.718 35.512ZM170.263 45.208C169.484 45.208 168.791 45.032 168.183 44.68C167.585 44.3173 167.116 43.8267 166.775 43.208C166.433 42.5787 166.263 41.8587 166.263 41.048C166.263 40.2267 166.428 39.5013 166.759 38.872C167.089 38.2427 167.553 37.752 168.151 37.4C168.748 37.0373 169.431 36.856 170.199 36.856C170.999 36.856 171.687 37.0267 172.263 37.368C172.839 37.6987 173.281 38.1627 173.591 38.76C173.911 39.3573 174.071 40.072 174.071 40.904V41.496L167.287 41.512L167.319 40.264H172.135C172.135 39.72 171.959 39.2827 171.607 38.952C171.265 38.6213 170.801 38.456 170.215 38.456C169.756 38.456 169.367 38.552 169.047 38.744C168.737 38.936 168.503 39.224 168.343 39.608C168.183 39.992 168.103 40.4613 168.103 41.016C168.103 41.8693 168.284 42.5147 168.647 42.952C169.02 43.3893 169.569 43.608 170.295 43.608C170.828 43.608 171.265 43.5067 171.607 43.304C171.959 43.1013 172.188 42.8133 172.295 42.44H174.103C173.932 43.304 173.505 43.9813 172.823 44.472C172.151 44.9627 171.297 45.208 170.263 45.208ZM177.545 45L174.409 37.096H176.489L177.865 40.728C178.036 41.1973 178.18 41.6293 178.297 42.024C178.425 42.408 178.516 42.7067 178.569 42.92C178.622 42.6747 178.713 42.36 178.841 41.976C178.98 41.5813 179.134 41.1653 179.305 40.728L180.745 37.096H182.761L179.465 45H177.545ZM187.044 45.208C186.265 45.208 185.572 45.032 184.964 44.68C184.367 44.3173 183.897 43.8267 183.556 43.208C183.215 42.5787 183.044 41.8587 183.044 41.048C183.044 40.2267 183.209 39.5013 183.54 38.872C183.871 38.2427 184.335 37.752 184.932 37.4C185.529 37.0373 186.212 36.856 186.98 36.856C187.78 36.856 188.468 37.0267 189.044 37.368C189.62 37.6987 190.063 38.1627 190.372 38.76C190.692 39.3573 190.852 40.072 190.852 40.904V41.496L184.068 41.512L184.1 40.264H188.916C188.916 39.72 188.74 39.2827 188.388 38.952C188.047 38.6213 187.583 38.456 186.996 38.456C186.537 38.456 186.148 38.552 185.828 38.744C185.519 38.936 185.284 39.224 185.124 39.608C184.964 39.992 184.884 40.4613 184.884 41.016C184.884 41.8693 185.065 42.5147 185.428 42.952C185.801 43.3893 186.351 43.608 187.076 43.608C187.609 43.608 188.047 43.5067 188.388 43.304C188.74 43.1013 188.969 42.8133 189.076 42.44H190.884C190.713 43.304 190.287 43.9813 189.604 44.472C188.932 44.9627 188.079 45.208 187.044 45.208ZM199.831 40.392L195.879 33.304H198.167L200.471 37.56C200.556 37.72 200.631 37.8693 200.695 38.008C200.759 38.1467 200.823 38.2853 200.887 38.424C200.94 38.328 200.983 38.2373 201.015 38.152C201.047 38.0667 201.084 37.9813 201.127 37.896C201.18 37.8 201.239 37.688 201.303 37.56L203.591 33.304H205.815L201.879 40.392V45H199.831V40.392ZM204.841 41.032C204.841 40.2107 205.022 39.4907 205.385 38.872C205.748 38.2427 206.249 37.752 206.889 37.4C207.529 37.048 208.254 36.872 209.065 36.872C209.886 36.872 210.612 37.048 211.241 37.4C211.881 37.752 212.382 38.2427 212.745 38.872C213.108 39.4907 213.289 40.2107 213.289 41.032C213.289 41.8533 213.108 42.5787 212.745 43.208C212.382 43.8267 211.881 44.312 211.241 44.664C210.612 45.016 209.886 45.192 209.065 45.192C208.254 45.192 207.529 45.016 206.889 44.664C206.249 44.312 205.748 43.8267 205.385 43.208C205.022 42.5787 204.841 41.8533 204.841 41.032ZM206.793 41.032C206.793 41.512 206.889 41.9333 207.081 42.296C207.284 42.6587 207.55 42.9413 207.881 43.144C208.222 43.3467 208.617 43.448 209.065 43.448C209.513 43.448 209.908 43.3467 210.249 43.144C210.59 42.9413 210.857 42.6587 211.049 42.296C211.241 41.9333 211.337 41.512 211.337 41.032C211.337 40.5413 211.241 40.12 211.049 39.768C210.857 39.4053 210.59 39.1227 210.249 38.92C209.908 38.7173 209.513 38.616 209.065 38.616C208.617 38.616 208.222 38.7173 207.881 38.92C207.55 39.1227 207.284 39.4053 207.081 39.768C206.889 40.12 206.793 40.5413 206.793 41.032ZM220.009 37.096H221.961V45H220.153L220.009 43.944C219.774 44.3173 219.422 44.6213 218.953 44.856C218.483 45.0907 217.982 45.208 217.449 45.208C216.542 45.208 215.833 44.92 215.321 44.344C214.809 43.768 214.553 43 214.553 42.04V37.096H216.505V41.352C216.505 42.0987 216.649 42.6373 216.937 42.968C217.225 43.2987 217.641 43.464 218.185 43.464C218.803 43.464 219.262 43.2827 219.561 42.92C219.859 42.5467 220.009 41.9867 220.009 41.24V37.096ZM228.937 37.064V38.872H228.217C227.502 38.872 226.942 39.064 226.537 39.448C226.131 39.8213 225.929 40.392 225.929 41.16V45H223.977V37.112H225.817L225.977 38.744H225.785C225.891 38.2213 226.142 37.7947 226.537 37.464C226.931 37.1333 227.443 36.968 228.073 36.968C228.211 36.968 228.35 36.9733 228.489 36.984C228.627 36.9947 228.777 37.0213 228.937 37.064ZM239.979 35.032C239.211 35.032 238.555 35.208 238.011 35.56C237.467 35.912 237.051 36.4027 236.763 37.032C236.475 37.6507 236.331 38.3867 236.331 39.24C236.331 40.104 236.485 40.84 236.795 41.448C237.104 42.0453 237.531 42.4987 238.075 42.808C238.629 43.1173 239.264 43.272 239.979 43.272C240.501 43.272 240.96 43.208 241.355 43.08C241.76 42.9413 242.101 42.744 242.378 42.488C242.656 42.2213 242.869 41.9013 243.019 41.528C243.179 41.1547 243.259 40.7387 243.259 40.28V39.256L244.219 40.232H239.723V38.424H245.163V45H243.435L243.259 43.112L243.499 43.352C243.328 43.704 243.056 44.0187 242.683 44.296C242.32 44.5733 241.888 44.792 241.387 44.952C240.885 45.1013 240.341 45.176 239.755 45.176C238.667 45.176 237.701 44.9307 236.859 44.44C236.027 43.9387 235.371 43.24 234.891 42.344C234.421 41.448 234.187 40.3973 234.187 39.192C234.187 38.008 234.427 36.9627 234.907 36.056C235.397 35.1387 236.08 34.4187 236.955 33.896C237.84 33.3733 238.864 33.112 240.027 33.112C240.923 33.112 241.733 33.2773 242.459 33.608C243.184 33.928 243.776 34.3813 244.235 34.968C244.704 35.5547 244.992 36.248 245.099 37.048H242.939C242.757 36.3547 242.395 35.848 241.851 35.528C241.307 35.1973 240.683 35.032 239.979 35.032ZM246.607 41.032C246.607 40.2107 246.788 39.4907 247.151 38.872C247.513 38.2427 248.015 37.752 248.655 37.4C249.295 37.048 250.02 36.872 250.831 36.872C251.652 36.872 252.377 37.048 253.007 37.4C253.647 37.752 254.148 38.2427 254.51 38.872C254.873 39.4907 255.055 40.2107 255.055 41.032C255.055 41.8533 254.873 42.5787 254.51 43.208C254.148 43.8267 253.647 44.312 253.007 44.664C252.377 45.016 251.652 45.192 250.831 45.192C250.02 45.192 249.295 45.016 248.655 44.664C248.015 44.312 247.513 43.8267 247.151 43.208C246.788 42.5787 246.607 41.8533 246.607 41.032ZM248.559 41.032C248.559 41.512 248.655 41.9333 248.847 42.296C249.049 42.6587 249.316 42.9413 249.647 43.144C249.988 43.3467 250.383 43.448 250.831 43.448C251.279 43.448 251.673 43.3467 252.015 43.144C252.356 42.9413 252.623 42.6587 252.815 42.296C253.007 41.9333 253.103 41.512 253.103 41.032C253.103 40.5413 253.007 40.12 252.815 39.768C252.623 39.4053 252.356 39.1227 252.015 38.92C251.673 38.7173 251.279 38.616 250.831 38.616C250.383 38.616 249.988 38.7173 249.647 38.92C249.316 39.1227 249.049 39.4053 248.847 39.768C248.655 40.12 248.559 40.5413 248.559 41.032ZM258.954 45.208C258.122 45.208 257.46 44.984 256.97 44.536C256.49 44.0773 256.25 43.48 256.25 42.744C256.25 42.0187 256.5 41.4427 257.002 41.016C257.514 40.5787 258.239 40.3227 259.178 40.248L261.546 40.056V39.88C261.546 39.5173 261.476 39.2293 261.338 39.016C261.21 38.792 261.023 38.632 260.778 38.536C260.532 38.4293 260.244 38.376 259.914 38.376C259.338 38.376 258.895 38.4933 258.586 38.728C258.276 38.952 258.122 39.272 258.122 39.688H256.458C256.458 39.112 256.602 38.616 256.89 38.2C257.188 37.7733 257.604 37.4427 258.138 37.208C258.682 36.9733 259.306 36.856 260.01 36.856C260.724 36.856 261.338 36.984 261.85 37.24C262.362 37.4853 262.756 37.8587 263.034 38.36C263.311 38.8507 263.45 39.464 263.45 40.2V45H261.738L261.594 43.832C261.423 44.2373 261.092 44.568 260.602 44.824C260.122 45.08 259.572 45.208 258.954 45.208ZM259.578 43.736C260.186 43.736 260.666 43.5653 261.018 43.224C261.38 42.8827 261.562 42.408 261.562 41.8V41.384L259.914 41.512C259.306 41.5653 258.874 41.6933 258.618 41.896C258.362 42.088 258.234 42.344 258.234 42.664C258.234 43.016 258.351 43.2827 258.586 43.464C258.82 43.6453 259.151 43.736 259.578 43.736ZM267.335 45H265.399V33.096H267.335V45ZM268.775 42.6H270.631C270.642 42.9413 270.77 43.2133 271.015 43.416C271.26 43.6187 271.602 43.72 272.039 43.72C272.508 43.72 272.86 43.6347 273.095 43.464C273.34 43.2933 273.463 43.064 273.463 42.776C273.463 42.584 273.399 42.4133 273.271 42.264C273.143 42.1147 272.903 42.0027 272.551 41.928L271.127 41.592C270.412 41.432 269.879 41.176 269.527 40.824C269.186 40.4613 269.015 39.9653 269.015 39.336C269.015 38.824 269.148 38.3813 269.415 38.008C269.692 37.6347 270.066 37.352 270.535 37.16C271.004 36.9573 271.543 36.856 272.151 36.856C272.738 36.856 273.255 36.9627 273.703 37.176C274.151 37.3893 274.498 37.688 274.743 38.072C274.999 38.456 275.132 38.904 275.143 39.416H273.287C273.287 39.0747 273.18 38.808 272.967 38.616C272.754 38.4133 272.455 38.312 272.071 38.312C271.687 38.312 271.388 38.3973 271.175 38.568C270.962 38.7387 270.855 38.968 270.855 39.256C270.855 39.6933 271.196 39.992 271.879 40.152L273.303 40.488C273.964 40.6373 274.46 40.8773 274.791 41.208C275.132 41.5387 275.303 42.008 275.303 42.616C275.303 43.1493 275.164 43.6133 274.887 44.008C274.61 44.392 274.22 44.6907 273.719 44.904C273.218 45.1067 272.642 45.208 271.991 45.208C271.01 45.208 270.226 44.968 269.639 44.488C269.063 44.008 268.775 43.3787 268.775 42.6ZM282.846 45L280.286 37.096H282.318L283.358 40.488C283.443 40.7973 283.528 41.1227 283.614 41.464C283.699 41.8053 283.774 42.1627 283.838 42.536C283.891 42.28 283.939 42.0453 283.982 41.832C284.035 41.6187 284.094 41.4107 284.158 41.208C284.222 40.9947 284.296 40.7547 284.382 40.488L285.47 37.096H287.454L288.51 40.488C288.531 40.5627 288.563 40.6907 288.606 40.872C288.659 41.0427 288.712 41.2293 288.766 41.432C288.819 41.6347 288.867 41.8373 288.91 42.04C288.963 42.232 289 42.3973 289.022 42.536C289.064 42.3333 289.118 42.104 289.182 41.848C289.246 41.592 289.31 41.3467 289.374 41.112C289.448 40.8667 289.507 40.6587 289.55 40.488L290.606 37.096H292.67L289.934 45H288.11L287.022 41.576C286.862 41.0533 286.734 40.6107 286.638 40.248C286.542 39.8747 286.478 39.5867 286.446 39.384C286.414 39.576 286.355 39.832 286.27 40.152C286.184 40.472 286.04 40.9573 285.838 41.608L284.75 45H282.846ZM293.852 45V37.096H295.804V45H293.852ZM294.812 35.512C294.481 35.512 294.198 35.4 293.964 35.176C293.74 34.9413 293.628 34.6587 293.628 34.328C293.628 33.9973 293.74 33.72 293.964 33.496C294.198 33.272 294.481 33.16 294.812 33.16C295.142 33.16 295.42 33.272 295.644 33.496C295.878 33.72 295.996 33.9973 295.996 34.328C295.996 34.6587 295.878 34.9413 295.644 35.176C295.42 35.4 295.142 35.512 294.812 35.512ZM297.037 37.096H302.029V38.728H297.037V37.096ZM300.509 45H298.557V34.632H300.509V45ZM305.21 45H303.258V33.096H305.226V38.12C305.471 37.736 305.813 37.432 306.25 37.208C306.698 36.9733 307.21 36.856 307.786 36.856C308.757 36.856 309.493 37.1493 309.994 37.736C310.506 38.3227 310.762 39.1227 310.762 40.136V45H308.81V40.6C308.81 40.152 308.741 39.784 308.602 39.496C308.463 39.208 308.271 38.9947 308.026 38.856C307.781 38.7067 307.493 38.632 307.162 38.632C306.757 38.632 306.405 38.7227 306.106 38.904C305.818 39.0747 305.594 39.3147 305.434 39.624C305.285 39.9333 305.21 40.2853 305.21 40.68V45ZM326.48 33.304L318.848 43.128V40.072L324.064 33.304H326.48ZM319.328 33.304V45H317.28V33.304H319.328ZM321.184 39.88L322.496 38.12L326.528 45H324.16L321.184 39.88ZM330.716 45.208C329.937 45.208 329.244 45.032 328.636 44.68C328.039 44.3173 327.569 43.8267 327.228 43.208C326.887 42.5787 326.716 41.8587 326.716 41.048C326.716 40.2267 326.881 39.5013 327.212 38.872C327.543 38.2427 328.007 37.752 328.604 37.4C329.201 37.0373 329.884 36.856 330.652 36.856C331.452 36.856 332.14 37.0267 332.716 37.368C333.292 37.6987 333.735 38.1627 334.044 38.76C334.364 39.3573 334.524 40.072 334.524 40.904V41.496L327.74 41.512L327.772 40.264H332.588C332.588 39.72 332.412 39.2827 332.06 38.952C331.719 38.6213 331.255 38.456 330.668 38.456C330.209 38.456 329.82 38.552 329.5 38.744C329.191 38.936 328.956 39.224 328.796 39.608C328.636 39.992 328.556 40.4613 328.556 41.016C328.556 41.8693 328.737 42.5147 329.1 42.952C329.473 43.3893 330.023 43.608 330.748 43.608C331.281 43.608 331.719 43.5067 332.06 43.304C332.412 43.1013 332.641 42.8133 332.748 42.44H334.556C334.385 43.304 333.959 43.9813 333.276 44.472C332.604 44.9627 331.751 45.208 330.716 45.208ZM339.622 45.208C338.843 45.208 338.15 45.032 337.542 44.68C336.945 44.3173 336.475 43.8267 336.134 43.208C335.793 42.5787 335.622 41.8587 335.622 41.048C335.622 40.2267 335.787 39.5013 336.118 38.872C336.449 38.2427 336.913 37.752 337.51 37.4C338.107 37.0373 338.79 36.856 339.558 36.856C340.358 36.856 341.046 37.0267 341.622 37.368C342.198 37.6987 342.641 38.1627 342.95 38.76C343.27 39.3573 343.43 40.072 343.43 40.904V41.496L336.646 41.512L336.678 40.264H341.494C341.494 39.72 341.318 39.2827 340.966 38.952C340.625 38.6213 340.161 38.456 339.574 38.456C339.115 38.456 338.726 38.552 338.406 38.744C338.097 38.936 337.862 39.224 337.702 39.608C337.542 39.992 337.462 40.4613 337.462 41.016C337.462 41.8693 337.643 42.5147 338.006 42.952C338.379 43.3893 338.929 43.608 339.654 43.608C340.187 43.608 340.625 43.5067 340.966 43.304C341.318 43.1013 341.547 42.8133 341.654 42.44H343.462C343.291 43.304 342.865 43.9813 342.182 44.472C341.51 44.9627 340.657 45.208 339.622 45.208ZM344.992 48.664V37.096H346.8L346.928 38.296C347.163 37.8373 347.526 37.4853 348.016 37.24C348.507 36.984 349.046 36.856 349.632 36.856C350.39 36.856 351.04 37.0267 351.584 37.368C352.139 37.7093 352.571 38.184 352.88 38.792C353.19 39.4 353.344 40.12 353.344 40.952C353.344 41.7733 353.2 42.504 352.912 43.144C352.624 43.784 352.203 44.2907 351.648 44.664C351.104 45.0267 350.438 45.208 349.648 45.208C349.062 45.208 348.523 45.096 348.032 44.872C347.552 44.648 347.19 44.3387 346.944 43.944V48.664H344.992ZM346.96 41.048C346.96 41.5173 347.051 41.9333 347.232 42.296C347.414 42.6587 347.67 42.9467 348 43.16C348.342 43.3627 348.736 43.464 349.184 43.464C349.643 43.464 350.038 43.3627 350.368 43.16C350.699 42.9467 350.95 42.6587 351.12 42.296C351.291 41.9333 351.376 41.5173 351.376 41.048C351.376 40.5787 351.291 40.1627 351.12 39.8C350.95 39.4373 350.699 39.1547 350.368 38.952C350.038 38.7387 349.643 38.632 349.184 38.632C348.736 38.632 348.342 38.7333 348 38.936C347.67 39.1387 347.414 39.4213 347.232 39.784C347.051 40.1467 346.96 40.568 346.96 41.048ZM138.744 56.28V67H136.696V56.28H138.744ZM133.272 57.192V55.304H142.168V57.192H133.272ZM145.398 67H143.446V55.096H145.414V60.12C145.659 59.736 146 59.432 146.438 59.208C146.886 58.9733 147.398 58.856 147.974 58.856C148.944 58.856 149.68 59.1493 150.182 59.736C150.694 60.3227 150.95 61.1227 150.95 62.136V67H148.998V62.6C148.998 62.152 148.928 61.784 148.79 61.496C148.651 61.208 148.459 60.9947 148.214 60.856C147.968 60.7067 147.68 60.632 147.35 60.632C146.944 60.632 146.592 60.7227 146.294 60.904C146.006 61.0747 145.782 61.3147 145.622 61.624C145.472 61.9333 145.398 62.2853 145.398 62.68V67ZM156.403 67.208C155.625 67.208 154.931 67.032 154.323 66.68C153.726 66.3173 153.257 65.8267 152.915 65.208C152.574 64.5787 152.403 63.8587 152.403 63.048C152.403 62.2267 152.569 61.5013 152.899 60.872C153.23 60.2427 153.694 59.752 154.291 59.4C154.889 59.0373 155.571 58.856 156.339 58.856C157.139 58.856 157.827 59.0267 158.403 59.368C158.979 59.6987 159.422 60.1627 159.731 60.76C160.051 61.3573 160.211 62.072 160.211 62.904V63.496L153.427 63.512L153.459 62.264H158.275C158.275 61.72 158.099 61.2827 157.747 60.952C157.406 60.6213 156.942 60.456 156.355 60.456C155.897 60.456 155.507 60.552 155.187 60.744C154.878 60.936 154.643 61.224 154.483 61.608C154.323 61.992 154.243 62.4613 154.243 63.016C154.243 63.8693 154.425 64.5147 154.787 64.952C155.161 65.3893 155.71 65.608 156.435 65.608C156.969 65.608 157.406 65.5067 157.747 65.304C158.099 65.1013 158.329 64.8133 158.435 64.44H160.243C160.073 65.304 159.646 65.9813 158.963 66.472C158.291 66.9627 157.438 67.208 156.403 67.208ZM165.702 58.568C165.702 57.8853 165.878 57.2827 166.23 56.76C166.582 56.2373 167.067 55.832 167.686 55.544C168.315 55.2453 169.041 55.096 169.862 55.096C170.651 55.096 171.334 55.2347 171.91 55.512C172.497 55.7893 172.95 56.184 173.27 56.696C173.601 57.208 173.777 57.816 173.798 58.52H171.75C171.729 58.0187 171.547 57.6293 171.206 57.352C170.865 57.064 170.406 56.92 169.83 56.92C169.201 56.92 168.694 57.064 168.31 57.352C167.937 57.6293 167.75 58.0133 167.75 58.504C167.75 58.92 167.862 59.2507 168.086 59.496C168.321 59.7307 168.683 59.9067 169.174 60.024L171.014 60.44C172.017 60.6533 172.763 61.0213 173.254 61.544C173.745 62.056 173.99 62.7493 173.99 63.624C173.99 64.3387 173.814 64.968 173.462 65.512C173.11 66.056 172.609 66.4773 171.958 66.776C171.318 67.064 170.566 67.208 169.702 67.208C168.881 67.208 168.161 67.0693 167.542 66.792C166.923 66.504 166.438 66.104 166.086 65.592C165.745 65.08 165.563 64.4773 165.542 63.784H167.59C167.601 64.2747 167.793 64.664 168.166 64.952C168.55 65.2293 169.067 65.368 169.718 65.368C170.401 65.368 170.939 65.2293 171.334 64.952C171.739 64.664 171.942 64.2853 171.942 63.816C171.942 63.4107 171.835 63.0907 171.622 62.856C171.409 62.6107 171.062 62.44 170.582 62.344L168.726 61.928C167.734 61.7147 166.982 61.3307 166.47 60.776C165.958 60.2107 165.702 59.4747 165.702 58.568ZM174.771 59.096H179.763V60.728H174.771V59.096ZM178.243 67H176.291V56.632H178.243V67ZM185.952 59.064V60.872H185.232C184.518 60.872 183.958 61.064 183.552 61.448C183.147 61.8213 182.944 62.392 182.944 63.16V67H180.992V59.112H182.832L182.992 60.744H182.8C182.907 60.2213 183.158 59.7947 183.552 59.464C183.947 59.1333 184.459 58.968 185.088 58.968C185.227 58.968 185.366 58.9733 185.504 58.984C185.643 58.9947 185.792 59.0213 185.952 59.064ZM190.544 67.208C189.765 67.208 189.072 67.032 188.464 66.68C187.867 66.3173 187.397 65.8267 187.056 65.208C186.715 64.5787 186.544 63.8587 186.544 63.048C186.544 62.2267 186.709 61.5013 187.04 60.872C187.371 60.2427 187.835 59.752 188.432 59.4C189.029 59.0373 189.712 58.856 190.48 58.856C191.28 58.856 191.968 59.0267 192.544 59.368C193.12 59.6987 193.563 60.1627 193.872 60.76C194.192 61.3573 194.352 62.072 194.352 62.904V63.496L187.568 63.512L187.6 62.264H192.416C192.416 61.72 192.24 61.2827 191.888 60.952C191.547 60.6213 191.083 60.456 190.496 60.456C190.037 60.456 189.648 60.552 189.328 60.744C189.019 60.936 188.784 61.224 188.624 61.608C188.464 61.992 188.384 62.4613 188.384 63.016C188.384 63.8693 188.565 64.5147 188.928 64.952C189.301 65.3893 189.851 65.608 190.576 65.608C191.109 65.608 191.547 65.5067 191.888 65.304C192.24 65.1013 192.469 64.8133 192.576 64.44H194.384C194.213 65.304 193.787 65.9813 193.104 66.472C192.432 66.9627 191.579 67.208 190.544 67.208ZM198.188 67.208C197.356 67.208 196.695 66.984 196.204 66.536C195.724 66.0773 195.484 65.48 195.484 64.744C195.484 64.0187 195.735 63.4427 196.236 63.016C196.748 62.5787 197.473 62.3227 198.412 62.248L200.78 62.056V61.88C200.78 61.5173 200.711 61.2293 200.572 61.016C200.444 60.792 200.257 60.632 200.012 60.536C199.767 60.4293 199.479 60.376 199.148 60.376C198.572 60.376 198.129 60.4933 197.82 60.728C197.511 60.952 197.356 61.272 197.356 61.688H195.692C195.692 61.112 195.836 60.616 196.124 60.2C196.423 59.7733 196.839 59.4427 197.372 59.208C197.916 58.9733 198.54 58.856 199.244 58.856C199.959 58.856 200.572 58.984 201.084 59.24C201.596 59.4853 201.991 59.8587 202.268 60.36C202.545 60.8507 202.684 61.464 202.684 62.2V67H200.972L200.828 65.832C200.657 66.2373 200.327 66.568 199.836 66.824C199.356 67.08 198.807 67.208 198.188 67.208ZM198.812 65.736C199.42 65.736 199.9 65.5653 200.252 65.224C200.615 64.8827 200.796 64.408 200.796 63.8V63.384L199.148 63.512C198.54 63.5653 198.108 63.6933 197.852 63.896C197.596 64.088 197.468 64.344 197.468 64.664C197.468 65.016 197.585 65.2827 197.82 65.464C198.055 65.6453 198.385 65.736 198.812 65.736ZM206.57 67H204.634V55.096H206.57V62.408L209.642 59.096H212.09L209.082 62.232L212.026 67H209.786L207.722 63.672L206.57 64.872V67ZM218.804 67H216.692L220.916 55.304H223.012L227.236 67H225.076L224.132 64.296H219.764L218.804 67ZM221.7 58.792L220.356 62.568H223.54L222.196 58.792C222.153 58.632 222.105 58.472 222.052 58.312C221.998 58.152 221.966 58.0133 221.956 57.896C221.934 58.0027 221.897 58.1413 221.844 58.312C221.801 58.472 221.753 58.632 221.7 58.792ZM230.382 67H228.446V55.096H230.382V67ZM232.43 67V59.096H234.382V67H232.43ZM233.39 57.512C233.059 57.512 232.777 57.4 232.542 57.176C232.318 56.9413 232.206 56.6587 232.206 56.328C232.206 55.9973 232.318 55.72 232.542 55.496C232.777 55.272 233.059 55.16 233.39 55.16C233.721 55.16 233.998 55.272 234.222 55.496C234.457 55.72 234.574 55.9973 234.574 56.328C234.574 56.6587 234.457 56.9413 234.222 57.176C233.998 57.4 233.721 57.512 233.39 57.512ZM238.639 67L235.503 59.096H237.583L238.959 62.728C239.129 63.1973 239.273 63.6293 239.391 64.024C239.519 64.408 239.609 64.7067 239.663 64.92C239.716 64.6747 239.807 64.36 239.935 63.976C240.073 63.5813 240.228 63.1653 240.399 62.728L241.839 59.096H243.855L240.559 67H238.639ZM248.138 67.208C247.359 67.208 246.666 67.032 246.058 66.68C245.46 66.3173 244.991 65.8267 244.65 65.208C244.308 64.5787 244.138 63.8587 244.138 63.048C244.138 62.2267 244.303 61.5013 244.634 60.872C244.964 60.2427 245.428 59.752 246.026 59.4C246.623 59.0373 247.306 58.856 248.074 58.856C248.874 58.856 249.562 59.0267 250.138 59.368C250.714 59.6987 251.156 60.1627 251.466 60.76C251.786 61.3573 251.946 62.072 251.946 62.904V63.496L245.162 63.512L245.194 62.264H250.01C250.01 61.72 249.834 61.2827 249.482 60.952C249.14 60.6213 248.676 60.456 248.09 60.456C247.631 60.456 247.242 60.552 246.922 60.744C246.612 60.936 246.378 61.224 246.218 61.608C246.058 61.992 245.978 62.4613 245.978 63.016C245.978 63.8693 246.159 64.5147 246.522 64.952C246.895 65.3893 247.444 65.608 248.17 65.608C248.703 65.608 249.14 65.5067 249.482 65.304C249.834 65.1013 250.063 64.8133 250.17 64.44H251.978C251.807 65.304 251.38 65.9813 250.698 66.472C250.026 66.9627 249.172 67.208 248.138 67.208Z" fill="#262626"/>
<g id="Group 6674">
<g id="local_fire_department_FILL1_wght400_GRAD0_opsz24 1">
<path id="Vector" d="M37.2141 75.2498C37.2141 68.5936 38.7989 62.6664 41.9686 57.4682C45.1382 52.2699 48.6248 47.8958 52.4284 44.3458C56.232 40.7958 59.7186 38.0858 62.8882 36.2157L67.6427 33.4106V45.9624C67.6427 48.3079 68.4351 50.1621 70.0199 51.5251C71.6047 52.888 73.3797 53.5695 75.3449 53.5695C76.4226 53.5695 77.4527 53.3476 78.4353 52.9039C79.4179 52.4601 80.3212 51.7311 81.1453 50.7168L82.8569 48.6249C87.4212 51.2874 91.098 54.98 93.8873 59.7028C96.6766 64.4255 98.0712 69.6079 98.0712 75.2498C98.0712 80.8284 96.7083 85.9157 93.9824 90.5117C91.2565 95.1076 87.6748 98.7369 83.2373 101.399C84.315 99.8779 85.1549 98.2139 85.7572 96.4072C86.3594 94.6005 86.6605 92.6829 86.6605 90.6543C86.6605 88.1186 86.1851 85.7255 85.2342 83.4751C84.2833 81.2246 82.9203 79.2119 81.1453 77.4369L67.6427 64.2195L54.2351 77.4369C52.3967 79.2753 51.002 81.3038 50.0512 83.5226C49.1003 85.7413 48.6248 88.1186 48.6248 90.6543C48.6248 92.6829 48.9259 94.6005 49.5282 96.4072C50.1304 98.2139 50.9704 99.8779 52.048 101.399C47.6105 98.7369 44.0288 95.1076 41.3029 90.5117C38.5771 85.9157 37.2141 80.8284 37.2141 75.2498ZM67.6427 74.8695L75.7252 82.7619C76.8029 83.8396 77.627 85.044 78.1976 86.3753C78.7681 87.7065 79.0534 89.1329 79.0534 90.6543C79.0534 93.7605 77.944 96.4072 75.7252 98.5942C73.5065 100.781 70.8123 101.875 67.6427 101.875C64.473 101.875 61.7788 100.781 59.5601 98.5942C57.3413 96.4072 56.232 93.7605 56.232 90.6543C56.232 89.1963 56.5172 87.7858 57.0878 86.4228C57.6583 85.0599 58.4824 83.8396 59.5601 82.7619L67.6427 74.8695Z" fill="url(#paint1_linear_0_1)"/>
</g>
</g>
<g id="Group 6675">
<g id="local_fire_department_FILL1_wght400_GRAD0_opsz24 1_2">
<path id="Vector_2" d="M22.8333 79.9165C22.8333 69.927 25.2117 61.0315 29.9687 53.2301C34.7256 45.4287 39.9583 38.8641 45.6666 33.5363C51.3749 28.2086 56.6076 24.1414 61.3645 21.3348L68.4999 17.1249V35.9624C68.4999 39.4825 69.6892 42.2653 72.0676 44.3108C74.4461 46.3563 77.11 47.379 80.0593 47.379C81.6767 47.379 83.2227 47.0461 84.6973 46.3801C86.172 45.7141 87.5277 44.62 88.7645 43.0978L91.3333 39.9582C98.1833 43.954 103.701 49.4959 107.887 56.5837C112.074 63.6716 114.167 71.4492 114.167 79.9165C114.167 88.2888 112.121 95.9237 108.03 102.821C103.939 109.719 98.5638 115.165 91.9041 119.161C93.5214 116.878 94.782 114.381 95.6859 111.669C96.5897 108.958 97.0416 106.08 97.0416 103.035C97.0416 99.2297 96.328 95.6382 94.901 92.2608C93.4739 88.8834 91.4284 85.8627 88.7645 83.1988L68.4999 63.3624L48.378 83.1988C45.619 85.9579 43.526 89.0023 42.0989 92.3322C40.6718 95.662 39.9583 99.2297 39.9583 103.035C39.9583 106.08 40.4102 108.958 41.314 111.669C42.2178 114.381 43.4784 116.878 45.0958 119.161C38.436 115.165 33.0607 109.719 28.9697 102.821C24.8787 95.9237 22.8333 88.2888 22.8333 79.9165ZM68.4999 79.3457L80.6301 91.1905C82.2475 92.8079 83.4843 94.6155 84.3405 96.6134C85.1968 98.6113 85.6249 100.752 85.6249 103.035C85.6249 107.697 83.96 111.669 80.6301 114.951C77.3003 118.234 73.2569 119.875 68.4999 119.875C63.743 119.875 59.6996 118.234 56.3697 114.951C53.0398 111.669 51.3749 107.697 51.3749 103.035C51.3749 100.847 51.803 98.7303 52.6593 96.6848C53.5155 94.6393 54.7523 92.8079 56.3697 91.1905L68.4999 79.3457Z" fill="#FC8026" fill-opacity="0.1"/>
</g>
</g>
</g>
<defs>
<filter id="filter0_d_0_1" x="-17" y="-36" width="451" height="679" filterUnits="userSpaceOnUse" color-interpolation-filters="sRGB">
<feFlood flood-opacity="0" result="BackgroundImageFix"/>
<feColorMatrix in="SourceAlpha" type="matrix" values="0 0 0 0 0 0 0 0 0 0 0 0 0 0 0 0 0 0 127 0" result="hardAlpha"/>
<feOffset dy="2"/>
<feGaussianBlur stdDeviation="3.5"/>
<feComposite in2="hardAlpha" operator="out"/>
<feColorMatrix type="matrix" values="0 0 0 0 0 0 0 0 0 0 0 0 0 0 0 0 0 0 0.17 0"/>
<feBlend mode="normal" in2="BackgroundImageFix" result="effect1_dropShadow_0_1"/>
<feBlend mode="normal" in="SourceGraphic" in2="effect1_dropShadow_0_1" result="shape"/>
</filter>
<linearGradient id="paint0_linear_0_1" x1="14" y1="68.5" x2="403" y2="68.5" gradientUnits="userSpaceOnUse">
<stop stop-color="#FFE39A"/>
<stop offset="1" stop-color="#FFF2D2" stop-opacity="0.82"/>
</linearGradient>
<linearGradient id="paint1_linear_0_1" x1="93.7922" y1="101.875" x2="28.9127" y2="84.7872" gradientUnits="userSpaceOnUse">
<stop stop-color="#FC8026"/>
<stop offset="1" stop-color="#014EE6"/>
</linearGradient>
<clipPath id="clip0_0_1">
<rect width="1280" height="722" fill="white" transform="translate(-853 -90)"/>
</clipPath>
</defs>
</svg>
