<svg width="92" height="92" viewBox="0 0 92 92" fill="none" xmlns="http://www.w3.org/2000/svg">
<path d="M15.2141 53.2498C15.2141 46.5936 16.7989 40.6664 19.9686 35.4682C23.1382 30.2699 26.6248 25.8958 30.4284 22.3458C34.232 18.7958 37.7186 16.0858 40.8882 14.2157L45.6427 11.4106V23.9624C45.6427 26.3079 46.4351 28.1621 48.0199 29.5251C49.6047 30.888 51.3797 31.5695 53.3449 31.5695C54.4226 31.5695 55.4527 31.3476 56.4353 30.9039C57.4179 30.4601 58.3212 29.7311 59.1453 28.7168L60.8569 26.6249C65.4212 29.2874 69.098 32.98 71.8873 37.7028C74.6766 42.4255 76.0712 47.6079 76.0712 53.2498C76.0712 58.8284 74.7083 63.9157 71.9824 68.5117C69.2565 73.1076 65.6748 76.7369 61.2373 79.3994C62.315 77.8779 63.1549 76.2139 63.7572 74.4072C64.3594 72.6005 64.6605 70.6829 64.6605 68.6543C64.6605 66.1186 64.1851 63.7255 63.2342 61.4751C62.2833 59.2246 60.9203 57.2119 59.1453 55.4369L45.6427 42.2195L32.2351 55.4369C30.3967 57.2753 29.002 59.3038 28.0512 61.5226C27.1003 63.7413 26.6248 66.1186 26.6248 68.6543C26.6248 70.6829 26.9259 72.6005 27.5282 74.4072C28.1304 76.2139 28.9704 77.8779 30.048 79.3994C25.6105 76.7369 22.0288 73.1076 19.3029 68.5117C16.5771 63.9157 15.2141 58.8284 15.2141 53.2498ZM45.6427 52.8695L53.7252 60.7619C54.8029 61.8396 55.627 63.044 56.1976 64.3753C56.7681 65.7065 57.0534 67.1329 57.0534 68.6543C57.0534 71.7605 55.944 74.4072 53.7252 76.5942C51.5065 78.7813 48.8123 79.8748 45.6427 79.8748C42.473 79.8748 39.7788 78.7813 37.5601 76.5942C35.3413 74.4072 34.232 71.7605 34.232 68.6543C34.232 67.1963 34.5172 65.7858 35.0878 64.4228C35.6583 63.0599 36.4824 61.8396 37.5601 60.7619L45.6427 52.8695Z" fill="url(#paint0_linear_1_371)"/>
<defs>
<linearGradient id="paint0_linear_1_371" x1="71.7922" y1="79.8748" x2="6.91272" y2="62.7872" gradientUnits="userSpaceOnUse">
<stop stop-color="#FC8026"/>
<stop offset="1" stop-color="#014EE6"/>
</linearGradient>
</defs>
</svg>
