<svg width="137" height="137" viewBox="0 0 137 137" fill="none" xmlns="http://www.w3.org/2000/svg">
<path d="M22.8333 79.9165C22.8333 69.927 25.2117 61.0315 29.9687 53.2301C34.7256 45.4287 39.9583 38.8641 45.6666 33.5363C51.3749 28.2086 56.6076 24.1414 61.3645 21.3348L68.4999 17.1249V35.9624C68.4999 39.4825 69.6892 42.2653 72.0676 44.3108C74.4461 46.3563 77.11 47.379 80.0593 47.379C81.6767 47.379 83.2227 47.0461 84.6973 46.3801C86.172 45.7141 87.5277 44.62 88.7645 43.0978L91.3333 39.9582C98.1833 43.954 103.701 49.4959 107.887 56.5837C112.074 63.6716 114.167 71.4492 114.167 79.9165C114.167 88.2888 112.121 95.9237 108.03 102.821C103.939 109.719 98.5638 115.165 91.9041 119.161C93.5214 116.878 94.782 114.381 95.6859 111.669C96.5897 108.958 97.0416 106.08 97.0416 103.035C97.0416 99.2297 96.328 95.6382 94.901 92.2608C93.4739 88.8834 91.4284 85.8627 88.7645 83.1988L68.4999 63.3624L48.378 83.1988C45.619 85.9579 43.526 89.0023 42.0989 92.3322C40.6718 95.662 39.9583 99.2297 39.9583 103.035C39.9583 106.08 40.4102 108.958 41.314 111.669C42.2178 114.381 43.4784 116.878 45.0958 119.161C38.436 115.165 33.0607 109.719 28.9697 102.821C24.8787 95.9237 22.8333 88.2888 22.8333 79.9165ZM68.4999 79.3457L80.6301 91.1905C82.2475 92.8079 83.4843 94.6155 84.3405 96.6134C85.1968 98.6113 85.6249 100.752 85.6249 103.035C85.6249 107.697 83.96 111.669 80.6301 114.951C77.3003 118.234 73.2569 119.875 68.4999 119.875C63.743 119.875 59.6996 118.234 56.3697 114.951C53.0398 111.669 51.3749 107.697 51.3749 103.035C51.3749 100.847 51.803 98.7303 52.6593 96.6848C53.5155 94.6393 54.7523 92.8079 56.3697 91.1905L68.4999 79.3457Z" fill="#FC8026" fill-opacity="0.1"/>
</svg>
