<svg width="16" height="16" viewBox="0 0 16 16" fill="none" xmlns="http://www.w3.org/2000/svg">
<g clip-path="url(#clip0_1_63)">
<path fill-rule="evenodd" clip-rule="evenodd" d="M7.96167 0.833313L8.99992 0.833313C9.27606 0.833313 9.49992 1.05717 9.49992 1.33331C9.49992 1.60946 9.27606 1.83331 8.99992 1.83331H7.99992C6.41444 1.83331 5.27562 1.83438 4.40897 1.95089C3.5567 2.06548 3.04289 2.28341 2.66312 2.66318C2.28335 3.04295 2.06542 3.55676 1.95083 4.40903C1.83431 5.27568 1.83325 6.4145 1.83325 7.99998C1.83325 9.58546 1.83431 10.7243 1.95083 11.5909C2.06542 12.4432 2.28335 12.957 2.66312 13.3368C3.04289 13.7166 3.5567 13.9345 4.40897 14.0491C5.27562 14.1656 6.41444 14.1666 7.99992 14.1666C9.5854 14.1666 10.7242 14.1656 11.5909 14.0491C12.4431 13.9345 12.957 13.7166 13.3367 13.3368C13.7165 12.957 13.9344 12.4432 14.049 11.5909C14.1655 10.7243 14.1666 9.58546 14.1666 7.99998V6.99998C14.1666 6.72384 14.3904 6.49998 14.6666 6.49998C14.9427 6.49998 15.1666 6.72384 15.1666 6.99998V8.03823C15.1666 9.57716 15.1666 10.7832 15.0401 11.7242C14.9106 12.6873 14.6404 13.4473 14.0438 14.0439C13.4473 14.6404 12.6873 14.9107 11.7241 15.0401C10.7831 15.1667 9.5771 15.1667 8.03817 15.1666H7.96167C6.42274 15.1667 5.21671 15.1667 4.27572 15.0401C3.31257 14.9107 2.55255 14.6404 1.95601 14.0439C1.35947 13.4473 1.08924 12.6873 0.95975 11.7242C0.833237 10.7832 0.833244 9.57716 0.833252 8.03823V7.96173C0.833244 6.4228 0.833237 5.21677 0.95975 4.27578C1.08924 3.31263 1.35947 2.55261 1.95601 1.95607C2.55255 1.35953 3.31257 1.0893 4.27572 0.959811C5.21671 0.833298 6.42274 0.833305 7.96167 0.833313ZM11.1803 1.51726C12.0922 0.605332 13.5707 0.605332 14.4826 1.51726C15.3946 2.42918 15.3946 3.9077 14.4826 4.81963L10.0506 9.2517C9.80306 9.49925 9.648 9.65432 9.47497 9.78928C9.27118 9.94824 9.05067 10.0845 8.81735 10.1957C8.61926 10.2901 8.41122 10.3595 8.07911 10.4701L6.14276 11.1156C5.78526 11.2347 5.39112 11.1417 5.12466 10.8752C4.8582 10.6088 4.76516 10.2146 4.88432 9.85714L5.52977 7.9208C5.64045 7.58868 5.70978 7.38064 5.80418 7.18255C5.91538 6.94923 6.05166 6.72872 6.21062 6.52493C6.34558 6.35189 6.50065 6.19684 6.74822 5.94931L11.1803 1.51726ZM13.7755 2.22436C13.2541 1.70296 12.4088 1.70296 11.8874 2.22436L11.6363 2.47544C11.6514 2.53935 11.6726 2.61549 11.7021 2.70042C11.7976 2.97579 11.9784 3.33846 12.3199 3.67998C12.6614 4.02149 13.0241 4.20229 13.2995 4.29783C13.3844 4.32729 13.4606 4.34846 13.5245 4.3636L13.7755 4.11252C14.2969 3.59112 14.2969 2.74576 13.7755 2.22436ZM12.7367 5.15137C12.3927 5.00344 11.992 4.76629 11.6128 4.38708C11.2336 4.00788 10.9965 3.60719 10.8485 3.26322L7.47826 6.63349C7.20058 6.91116 7.09168 7.02128 6.99913 7.13995C6.88484 7.28647 6.78685 7.44502 6.70691 7.61277C6.64216 7.74862 6.59237 7.89527 6.46819 8.26781L6.18026 9.1316L6.8683 9.81964L7.73209 9.53171C8.10463 9.40753 8.25128 9.35773 8.38713 9.29299C8.55488 9.21305 8.71343 9.11506 8.85995 9.00077C8.97862 8.90822 9.08874 8.79932 9.36641 8.52164L12.7367 5.15137Z" fill="white"/>
</g>
<defs>
<clipPath id="clip0_1_63">
<rect width="16" height="16" fill="white"/>
</clipPath>
</defs>
</svg>
