<svg width="16" height="16" viewBox="0 0 16 16" fill="none" xmlns="http://www.w3.org/2000/svg">
<path fill-rule="evenodd" clip-rule="evenodd" d="M6.97377 0.833328H9.02625C10.0952 0.833324 10.9331 0.833321 11.6026 0.896973C12.285 0.961853 12.8437 1.09637 13.3363 1.39821C13.852 1.71429 14.2857 2.14795 14.6018 2.66375C14.9036 3.1563 15.0382 3.71503 15.103 4.3974C15.1667 5.06686 15.1667 5.90483 15.1667 6.97375V7.68523C15.1667 8.44608 15.1667 9.04264 15.1338 9.52455C15.1003 10.0149 15.0312 10.4229 14.8749 10.8003C14.4858 11.7396 13.7396 12.4858 12.8003 12.8749C12.2636 13.0972 11.6524 13.1465 10.8155 13.1609C10.5228 13.1659 10.3374 13.1696 10.1961 13.1853C10.064 13.1999 10.0128 13.2213 9.98283 13.2388C9.95123 13.2572 9.90817 13.2907 9.83341 13.3932C9.75251 13.5042 9.66109 13.6576 9.51612 13.9026L9.15472 14.5131C8.639 15.3844 7.36099 15.3844 6.84527 14.5131L6.48387 13.9026C6.33891 13.6576 6.24749 13.5042 6.16658 13.3932C6.09182 13.2907 6.04876 13.2572 6.01716 13.2388C5.9872 13.2213 5.936 13.1999 5.80393 13.1853C5.66259 13.1696 5.47718 13.1659 5.18445 13.1609C4.34759 13.1465 3.73637 13.0972 3.19972 12.8749C2.26045 12.4858 1.5142 11.7396 1.12514 10.8003C0.96883 10.4229 0.899674 10.0149 0.86622 9.52455C0.83334 9.04264 0.833341 8.44608 0.833344 7.68522L0.833344 6.97376C0.833339 5.90483 0.833336 5.06686 0.896988 4.3974C0.961868 3.71503 1.09639 3.1563 1.39822 2.66375C1.7143 2.14795 2.14797 1.71429 2.66377 1.39821C3.15631 1.09637 3.71505 0.961853 4.39741 0.896973C5.06687 0.833321 5.90485 0.833324 6.97377 0.833328ZM4.49207 1.89248C3.8829 1.9504 3.49528 2.06148 3.18626 2.25085C2.80502 2.48447 2.48449 2.80501 2.25086 3.18625C2.0615 3.49527 1.95042 3.88288 1.8925 4.49205C1.83387 5.10866 1.83334 5.89917 1.83334 7V7.66666C1.83334 8.45007 1.83361 9.01259 1.8639 9.45648C1.89388 9.89588 1.95159 10.1824 2.04902 10.4176C2.33658 11.1118 2.88816 11.6634 3.58241 11.951C3.92616 12.0934 4.36472 12.1466 5.20168 12.161L5.22289 12.1614C5.48822 12.166 5.72074 12.17 5.91399 12.1914C6.12165 12.2144 6.32475 12.2608 6.51992 12.3743C6.71344 12.4869 6.85303 12.6373 6.97472 12.8042C7.08716 12.9585 7.20271 13.1538 7.33359 13.3749L7.70582 14.0038C7.83433 14.2209 8.16566 14.2209 8.29417 14.0038L8.6664 13.3749C8.79728 13.1538 8.91284 12.9585 9.02528 12.8042C9.14696 12.6373 9.28655 12.4869 9.48007 12.3743C9.67525 12.2608 9.87834 12.2144 10.086 12.1914C10.2793 12.17 10.5118 12.166 10.7771 12.1614L10.7983 12.161C11.6353 12.1466 12.0739 12.0934 12.4176 11.951C13.1119 11.6634 13.6634 11.1118 13.951 10.4176C14.0484 10.1824 14.1061 9.89588 14.1361 9.45648C14.1664 9.01259 14.1667 8.45007 14.1667 7.66666V7C14.1667 5.89917 14.1661 5.10866 14.1075 4.49205C14.0496 3.88288 13.9385 3.49527 13.7492 3.18625C13.5155 2.80501 13.195 2.48447 12.8138 2.25085C12.5047 2.06148 12.1171 1.9504 11.508 1.89248C10.8913 1.83386 10.1008 1.83333 9.00001 1.83333H7.00001C5.89918 1.83333 5.10868 1.83386 4.49207 1.89248ZM4.83334 6C4.83334 5.72385 5.0572 5.5 5.33334 5.5H10.6667C10.9428 5.5 11.1667 5.72385 11.1667 6C11.1667 6.27614 10.9428 6.5 10.6667 6.5H5.33334C5.0572 6.5 4.83334 6.27614 4.83334 6ZM4.83334 8.33333C4.83334 8.05719 5.0572 7.83333 5.33334 7.83333H9.00001C9.27615 7.83333 9.50001 8.05719 9.50001 8.33333C9.50001 8.60947 9.27615 8.83333 9.00001 8.83333H5.33334C5.0572 8.83333 4.83334 8.60947 4.83334 8.33333Z" fill="#454545"/>
</svg>
